<svg width="320" height="220" viewBox="0 0 320 220" fill="none" xmlns="http://www.w3.org/2000/svg">
<path d="M40 54C42.2091 54 44 52.2091 44 50C44 47.7909 42.2091 46 40 46C37.7909 46 36 47.7909 36 50C36 52.2091 37.7909 54 40 54Z" fill="#FFD700"/>
<path d="M80 38C81.1046 38 82 37.1046 82 36C82 34.8954 81.1046 34 80 34C78.8954 34 78 34.8954 78 36C78 37.1046 78.8954 38 80 38Z" fill="#FF6F00"/>
<path d="M110 63C111.657 63 113 61.6569 113 60C113 58.3431 111.657 57 110 57C108.343 57 107 58.3431 107 60C107 61.6569 108.343 63 110 63Z" fill="#2ECC71"/>
<path d="M285 63C286.657 63 288 61.6569 288 60C288 58.3431 286.657 57 285 57C283.343 57 282 58.3431 282 60C282 61.6569 283.343 63 285 63Z" fill="#FFD700"/>
<path d="M250 37C251.105 37 252 36.1046 252 35C252 33.8954 251.105 33 250 33C248.895 33 248 33.8954 248 35C248 36.1046 248.895 37 250 37Z" fill="#FF6F00"/>
<path d="M200 50.5C201.381 50.5 202.5 49.3807 202.5 48C202.5 46.6193 201.381 45.5 200 45.5C198.619 45.5 197.5 46.6193 197.5 48C197.5 49.3807 198.619 50.5 200 50.5Z" fill="#2ECC71"/>
<path d="M300 82C301.105 82 302 81.1046 302 80C302 78.8954 301.105 78 300 78C298.895 78 298 78.8954 298 80C298 81.1046 298.895 82 300 82Z" fill="#B2DFDB"/>
<path d="M182 80H138C128.059 80 120 88.0589 120 98V122C120 131.941 128.059 140 138 140H182C191.941 140 200 131.941 200 122V98C200 88.0589 191.941 80 182 80Z" fill="#FFD700" stroke="#FFC107" stroke-width="4"/>
<path d="M160 170C177.673 170 192 165.523 192 160C192 154.477 177.673 150 160 150C142.327 150 128 154.477 128 160C128 165.523 142.327 170 160 170Z" fill="#FFD700"/>
<path d="M172 140H148C146.343 140 145 141.343 145 143V149C145 150.657 146.343 152 148 152H172C173.657 152 175 150.657 175 149V143C175 141.343 173.657 140 172 140Z" fill="#FFC107"/>
<path d="M173 150H147C145.895 150 145 150.895 145 152V155C145 156.105 145.895 157 147 157H173C174.105 157 175 156.105 175 155V152C175 150.895 174.105 150 173 150Z" fill="#FFD700"/>
<path d="M120 110C96.6667 116.667 96.6667 126.667 120 140" stroke="#FFD700" stroke-width="6"/>
<path d="M200 110C223.333 116.667 223.333 126.667 200 140" stroke="#FFD700" stroke-width="6"/>
<path d="M90 195C99.9411 195 108 190.523 108 185C108 179.477 99.9411 175 90 175C80.0589 175 72 179.477 72 185C72 190.523 80.0589 195 90 195Z" fill="#B2DFDB"/>
<path d="M90 182C96.6274 182 102 176.627 102 170C102 163.373 96.6274 158 90 158C83.3726 158 78 163.373 78 170C78 176.627 83.3726 182 90 182Z" fill="#FFD180"/>
<path opacity="0.3" d="M90 197.5C93.866 197.5 97 196.381 97 195C97 193.619 93.866 192.5 90 192.5C86.134 192.5 83 193.619 83 195C83 196.381 86.134 197.5 90 197.5Z" fill="#2ECC71"/>
<path d="M95.4889 177.118L83.8978 180.224C82.2974 180.652 81.3476 182.297 81.7765 183.898C82.2053 185.498 83.8503 186.448 85.4507 186.019L97.0418 182.913C98.6422 182.484 99.5919 180.839 99.1631 179.239C98.7343 177.639 97.0893 176.689 95.4889 177.118Z" fill="#FFD180"/>
<path d="M82.9282 164L77.7321 167C76.7755 167.552 76.4477 168.775 77 169.732C77.5523 170.689 78.7755 171.016 79.7321 170.464L84.9282 167.464C85.8848 166.912 86.2125 165.689 85.6603 164.732C85.108 163.775 83.8848 163.448 82.9282 164Z" fill="#FFD180"/>
<path d="M110.928 172L105.732 169C104.775 168.448 103.552 168.775 103 169.732C102.448 170.689 102.775 171.912 103.732 172.464L108.928 175.464C109.885 176.016 111.108 175.689 111.66 174.732C112.213 173.775 111.885 172.552 110.928 172Z" fill="#FFD180"/>
<path d="M87 175C89 177.667 91 177.667 93 175" stroke="#F9A825" stroke-width="2"/>
<path d="M70 60L72 64H76L73 67L74 71L70 69L66 71L67 67L64 64H68L70 60Z" fill="#FFD700"/>
<path d="M250 100L252 104H256L253 107L254 111L250 109L246 111L247 107L244 104H248L250 100Z" fill="#FFD700"/>
</svg>
