<svg width="40" height="40" viewBox="0 0 40 40" fill="none" xmlns="http://www.w3.org/2000/svg">
<path d="M25 3.33325H10C9.11595 3.33325 8.2681 3.68444 7.64298 4.30956C7.01786 4.93468 6.66667 5.78253 6.66667 6.66659V33.3333C6.66667 34.2173 7.01786 35.0652 7.64298 35.6903C8.2681 36.3154 9.11595 36.6666 10 36.6666H30C30.8841 36.6666 31.7319 36.3154 32.357 35.6903C32.9821 35.0652 33.3333 34.2173 33.3333 33.3333V11.6666L25 3.33325Z" stroke="#222227" stroke-width="1.5" stroke-linecap="round" stroke-linejoin="round"/>
<path d="M23.3333 3.33325V9.99992C23.3333 10.884 23.6845 11.7318 24.3096 12.3569C24.9348 12.9821 25.7826 13.3333 26.6667 13.3333H33.3333" stroke="#222227" stroke-width="1.5" stroke-linecap="round" stroke-linejoin="round"/>
<path d="M16.6667 15H13.3333" stroke="#222227" stroke-width="1.5" stroke-linecap="round" stroke-linejoin="round"/>
<path d="M26.6667 21.6667H13.3333" stroke="#222227" stroke-width="1.5" stroke-linecap="round" stroke-linejoin="round"/>
<path d="M26.6667 28.3333H13.3333" stroke="#222227" stroke-width="1.5" stroke-linecap="round" stroke-linejoin="round"/>
</svg>
