<svg width="22" height="22" viewBox="0 0 22 22" fill="none" xmlns="http://www.w3.org/2000/svg">
<path d="M2.2 18.9202C2.19987 17.7816 2.47589 16.66 3.00439 15.6516C3.53288 14.6431 4.29808 13.7779 5.23437 13.13C6.17066 12.4822 7.2501 12.0712 8.38013 11.9321C9.51016 11.793 10.6571 11.9301 11.7225 12.3316" stroke="white" stroke-width="2" stroke-linecap="round" stroke-linejoin="round"/>
<path d="M19.2526 15.0709C19.6032 14.7203 19.8001 14.2449 19.8001 13.7491C19.8001 13.2534 19.6032 12.7779 19.2526 12.4274C18.9021 12.0768 18.4266 11.8799 17.9309 11.8799C17.4351 11.8799 16.9597 12.0768 16.6091 12.4274L13.0803 15.9579C12.8711 16.167 12.718 16.4255 12.635 16.7095L11.8985 19.2351C11.8764 19.3108 11.8751 19.391 11.8946 19.4675C11.9142 19.5439 11.954 19.6136 12.0098 19.6694C12.0655 19.7252 12.1353 19.7649 12.2117 19.7845C12.2881 19.8041 12.3684 19.8027 12.4441 19.7807L14.9697 19.0441C15.2536 18.9612 15.5121 18.808 15.7212 18.5988L19.2526 15.0709Z" stroke="white" stroke-width="2" stroke-linecap="round" stroke-linejoin="round"/>
<path d="M9.24 11.8801C11.6701 11.8801 13.64 9.91013 13.64 7.48008C13.64 5.05003 11.6701 3.08008 9.24 3.08008C6.80995 3.08008 4.84 5.05003 4.84 7.48008C4.84 9.91013 6.80995 11.8801 9.24 11.8801Z" stroke="white" stroke-width="2" stroke-linecap="round" stroke-linejoin="round"/>
</svg>
