<svg width="25" height="24" viewBox="0 0 25 24" fill="none" xmlns="http://www.w3.org/2000/svg">
<path d="M10.7945 5.07599C13.1372 4.7984 15.507 5.29081 17.5418 6.47804C19.5767 7.66527 21.1648 9.48207 22.0637 11.651C22.1475 11.8755 22.1475 12.1225 22.0637 12.347C21.6941 13.238 21.2056 14.0755 20.6114 14.837" stroke="#2C4899" stroke-width="2" stroke-linecap="round" stroke-linejoin="round"/>
<path d="M14.1647 14.158C13.5957 14.7045 12.8335 15.0069 12.0424 15C11.2513 14.9932 10.4946 14.6777 9.93517 14.1215C9.37576 13.5652 9.05844 12.8128 9.05157 12.0262C9.04469 11.2396 9.34881 10.4818 9.89841 9.91602" stroke="#2C4899" stroke-width="2" stroke-linecap="round" stroke-linejoin="round"/>
<path d="M17.5791 17.499C16.245 18.2848 14.7565 18.7761 13.2146 18.9394C11.6727 19.1028 10.1136 18.9345 8.64285 18.4459C7.17215 17.9573 5.82435 17.1599 4.69091 16.1078C3.55747 15.0556 2.66491 13.7734 2.07379 12.348C1.98997 12.1235 1.98997 11.8765 2.07379 11.652C2.9655 9.50189 4.53448 7.69728 6.54527 6.50903" stroke="#2C4899" stroke-width="2" stroke-linecap="round" stroke-linejoin="round"/>
<path d="M2.01147 2L22.1261 22" stroke="#2C4899" stroke-width="2" stroke-linecap="round" stroke-linejoin="round"/>
</svg>
