<svg width="349" height="220" viewBox="0 0 349 220" fill="none" xmlns="http://www.w3.org/2000/svg">
<g clip-path="url(#clip0_12_642)">
<path d="M309.738 0H39.2625C17.5784 0 0 16.1177 0 36V184C0 203.882 17.5784 220 39.2625 220H309.738C331.422 220 349 203.882 349 184V36C349 16.1177 331.422 0 309.738 0Z" fill="#E3EDFF"/>
<path d="M261.75 50H87.25C75.2033 50 65.4375 58.9543 65.4375 70V150C65.4375 161.046 75.2033 170 87.25 170H261.75C273.797 170 283.563 161.046 283.563 150V70C283.563 58.9543 273.797 50 261.75 50Z" fill="white" stroke="#B3C7F7" stroke-width="2"/>
<path d="M183.225 75H165.775C158.547 75 152.688 80.3726 152.688 87V111C152.688 117.627 158.547 123 165.775 123H183.225C190.453 123 196.312 117.627 196.312 111V87C196.312 80.3726 190.453 75 183.225 75Z" fill="#B3C7F7"/>
<path d="M185.406 76C185.406 70.4772 180.523 66 174.5 66C168.477 66 163.594 70.4772 163.594 76V78C163.594 83.5228 168.477 88 174.5 88C180.523 88 185.406 83.5228 185.406 78V76Z" fill="#FFD180"/>
<path d="M174.5 107C176.909 107 178.862 104.314 178.862 101C178.862 97.6863 176.909 95 174.5 95C172.091 95 170.137 97.6863 170.137 101C170.137 104.314 172.091 107 174.5 107Z" fill="#1A237E"/>
<path d="M119.969 136C129.606 136 137.419 128.837 137.419 120C137.419 111.163 129.606 104 119.969 104C110.331 104 102.519 111.163 102.519 120C102.519 128.837 110.331 136 119.969 136Z" fill="#FFD180"/>
<path d="M119.969 162C128.401 162 135.238 154.837 135.238 146C135.238 137.163 128.401 130 119.969 130C111.536 130 104.7 137.163 104.7 146C104.7 154.837 111.536 162 119.969 162Z" fill="#2B4799"/>
<path d="M125.231 136.25L116.731 131.75C114.905 130.784 112.57 131.357 111.516 133.031C110.462 134.705 111.088 136.846 112.914 137.812L121.414 142.312C123.24 143.279 125.574 142.705 126.629 141.031C127.683 139.357 127.057 137.216 125.231 136.25Z" fill="#FFD180"/>
<path d="M128.694 137.5C130.501 137.5 131.966 135.933 131.966 134C131.966 132.067 130.501 130.5 128.694 130.5C126.887 130.5 125.422 132.067 125.422 134C125.422 135.933 126.887 137.5 128.694 137.5Z" fill="#FFD180"/>
<path d="M117.612 103.203V102.937C117.618 102.026 117.698 101.299 117.855 100.758C118.016 100.216 118.251 99.7786 118.558 99.4453C118.865 99.112 119.235 98.8099 119.667 98.5391C119.99 98.3307 120.279 98.1146 120.534 97.8906C120.79 97.6667 120.993 97.4193 121.144 97.1484C121.295 96.8724 121.37 96.5651 121.37 96.2266C121.37 95.8672 121.284 95.5521 121.112 95.2812C120.941 95.0104 120.709 94.8021 120.417 94.6562C120.131 94.5104 119.813 94.4375 119.464 94.4375C119.126 94.4375 118.805 94.513 118.503 94.6641C118.201 94.8099 117.954 95.0286 117.761 95.3203C117.568 95.6068 117.464 95.9635 117.448 96.3906H114.261C114.287 95.349 114.537 94.4896 115.011 93.8125C115.485 93.1302 116.112 92.6224 116.894 92.2891C117.675 91.9505 118.537 91.7812 119.48 91.7812C120.516 91.7812 121.433 91.9531 122.23 92.2969C123.027 92.6354 123.652 93.1276 124.105 93.7734C124.558 94.4193 124.784 95.1979 124.784 96.1094C124.784 96.7187 124.683 97.2604 124.48 97.7344C124.282 98.2031 124.003 98.6198 123.644 98.9844C123.284 99.3437 122.86 99.6693 122.37 99.9609C121.959 100.206 121.62 100.461 121.355 100.727C121.094 100.992 120.899 101.299 120.769 101.648C120.644 101.997 120.579 102.427 120.573 102.937V103.203H117.612ZM119.159 108.203C118.639 108.203 118.193 108.021 117.823 107.656C117.459 107.286 117.279 106.844 117.284 106.328C117.279 105.818 117.459 105.38 117.823 105.016C118.193 104.651 118.639 104.469 119.159 104.469C119.654 104.469 120.089 104.651 120.464 105.016C120.839 105.38 121.029 105.818 121.034 106.328C121.029 106.672 120.938 106.987 120.761 107.273C120.589 107.555 120.362 107.781 120.081 107.953C119.8 108.12 119.493 108.203 119.159 108.203Z" fill="#1A237E"/>
<path d="M248.662 150H222.487C220.078 150 218.125 151.791 218.125 154V164C218.125 166.209 220.078 168 222.487 168H248.662C251.072 168 253.025 166.209 253.025 164V154C253.025 151.791 251.072 150 248.662 150Z" fill="white"/>
<path d="M218.125 150L235.575 162L253.025 150H218.125Z" fill="#FFD180"/>
<path d="M243.209 158H227.941C227.338 158 226.85 158.448 226.85 159C226.85 159.552 227.338 160 227.941 160H243.209C243.812 160 244.3 159.552 244.3 159C244.3 158.448 243.812 158 243.209 158Z" fill="#FFD180"/>
</g>
<defs>
<clipPath id="clip0_12_642">
<rect width="349" height="220" fill="white"/>
</clipPath>
</defs>
</svg>
