<svg width="349" height="220" viewBox="0 0 349 220" fill="none" xmlns="http://www.w3.org/2000/svg">
<g clip-path="url(#clip0_10_365)">
<path d="M309.738 0H39.2625C17.5784 0 0 16.1177 0 36V184C0 203.882 17.5784 220 39.2625 220H309.738C331.422 220 349 203.882 349 184V36C349 16.1177 331.422 0 309.738 0Z" fill="#E3EDFF"/>
<path d="M174.5 215C234.734 215 283.563 208.284 283.563 200C283.563 191.716 234.734 185 174.5 185C114.266 185 65.4375 191.716 65.4375 200C65.4375 208.284 114.266 215 174.5 215Z" fill="#E3EDFF"/>
<path d="M290.106 60H211.581C203.149 60 196.312 66.268 196.312 74V126C196.312 133.732 203.149 140 211.581 140H290.106C298.539 140 305.375 133.732 305.375 126V74C305.375 66.268 298.539 60 290.106 60Z" fill="white" stroke="#2ECC71" stroke-width="2"/>
<path d="M224.669 120H220.306C219.102 120 218.125 120.895 218.125 122V138C218.125 139.105 219.102 140 220.306 140H224.669C225.873 140 226.85 139.105 226.85 138V122C226.85 120.895 225.873 120 224.669 120Z" fill="#B2DFDB"/>
<path d="M239.938 110H235.575C234.37 110 233.394 110.895 233.394 112V138C233.394 139.105 234.37 140 235.575 140H239.938C241.142 140 242.119 139.105 242.119 138V112C242.119 110.895 241.142 110 239.938 110Z" fill="#2ECC71"/>
<path d="M255.206 100H250.844C249.639 100 248.662 100.895 248.662 102V138C248.662 139.105 249.639 140 250.844 140H255.206C256.411 140 257.387 139.105 257.387 138V102C257.387 100.895 256.411 100 255.206 100Z" fill="#FFD700"/>
<path d="M270.475 115H266.113C264.908 115 263.931 115.895 263.931 117V138C263.931 139.105 264.908 140 266.113 140H270.475C271.68 140 272.656 139.105 272.656 138V117C272.656 115.895 271.68 115 270.475 115Z" fill="#FF6F00"/>
<path opacity="0.22" d="M278.109 100C286.542 100 293.378 93.732 293.378 86C293.378 78.268 286.542 72 278.109 72C269.677 72 262.841 78.268 262.841 86C262.841 93.732 269.677 100 278.109 100Z" fill="#2ECC71"/>
<path d="M272.656 86L278.109 92L286.834 78" stroke="#2ECC71" stroke-width="3" stroke-linecap="round"/>
<path d="M92.7031 174C110.773 174 125.422 163.255 125.422 150C125.422 136.745 110.773 126 92.7031 126C74.6331 126 59.9844 136.745 59.9844 150C59.9844 163.255 74.6331 174 92.7031 174Z" fill="#2B4899"/>
<path d="M92.7031 138C103.545 138 112.334 129.941 112.334 120C112.334 110.059 103.545 102 92.7031 102C81.8611 102 73.0719 110.059 73.0719 120C73.0719 129.941 81.8611 138 92.7031 138Z" fill="#FFD180"/>
<path d="M92.7031 129C96.9194 129 100.337 127.657 100.337 126C100.337 124.343 96.9194 123 92.7031 123C88.4868 123 85.0687 124.343 85.0687 126C85.0687 127.657 88.4868 129 92.7031 129Z" fill="white"/>
<path d="M87.25 125.5C87.9728 125.5 88.5588 124.828 88.5588 124C88.5588 123.172 87.9728 122.5 87.25 122.5C86.5272 122.5 85.9413 123.172 85.9413 124C85.9413 124.828 86.5272 125.5 87.25 125.5Z" fill="#2B4899"/>
<path d="M98.1563 125.5C98.8791 125.5 99.465 124.828 99.465 124C99.465 123.172 98.8791 122.5 98.1563 122.5C97.4335 122.5 96.8475 123.172 96.8475 124C96.8475 124.828 97.4335 125.5 98.1563 125.5Z" fill="#2B4899"/>
<path d="M93.7937 131H91.6125C91.0101 131 90.5219 131.448 90.5219 132C90.5219 132.552 91.0101 133 91.6125 133H93.7937C94.3961 133 94.8844 132.552 94.8844 132C94.8844 131.448 94.3961 131 93.7937 131Z" fill="#F9A825"/>
<path d="M141.858 122.055L113.162 131.632C110.898 132.387 109.731 134.683 110.555 136.759C111.379 138.835 113.882 139.905 116.146 139.149L144.842 129.573C147.106 128.817 148.273 126.522 147.449 124.446C146.625 122.37 144.122 121.3 141.858 122.055Z" fill="#FFD180"/>
<path d="M143.962 131C146.372 131 148.325 128.761 148.325 126C148.325 123.239 146.372 121 143.962 121C141.553 121 139.6 123.239 139.6 126C139.6 128.761 141.553 131 143.962 131Z" fill="#FFD180"/>
<path d="M65.4375 190C73.8702 190 80.7063 186.418 80.7063 182C80.7063 177.582 73.8702 174 65.4375 174C57.0048 174 50.1688 177.582 50.1688 182C50.1688 186.418 57.0048 190 65.4375 190Z" fill="#B2DFDB"/>
<path d="M65.4375 182C71.4609 182 76.3438 177.523 76.3438 172C76.3438 166.477 71.4609 162 65.4375 162C59.4141 162 54.5312 166.477 54.5312 172C54.5312 177.523 59.4141 182 65.4375 182Z" fill="#F8BBD0"/>
<path d="M75.2531 148H53.4406C48.622 148 44.7156 151.582 44.7156 156V158C44.7156 162.418 48.622 166 53.4406 166H75.2531C80.0718 166 83.9781 162.418 83.9781 158V156C83.9781 151.582 80.0718 148 75.2531 148Z" fill="white"/>
<path d="M65.4375 166L67.6187 174L71.9812 167H58.8937L63.2562 174L65.4375 166Z" fill="#FFD700"/>
<path d="M327.188 198C333.211 198 338.094 196.657 338.094 195C338.094 193.343 333.211 192 327.188 192C321.164 192 316.281 193.343 316.281 195C316.281 196.657 321.164 198 327.188 198Z" fill="#B2DFDB"/>
<path d="M330.459 185C330.459 183.343 328.995 182 327.188 182C325.381 182 323.916 183.343 323.916 185V192C323.916 193.657 325.381 195 327.188 195C328.995 195 330.459 193.657 330.459 192V185Z" fill="#2ECC71"/>
<path d="M327.188 185C328.693 185 329.914 183.209 329.914 181C329.914 178.791 328.693 177 327.188 177C325.682 177 324.461 178.791 324.461 181C324.461 183.209 325.682 185 327.188 185Z" fill="#2ECC71"/>
</g>
<defs>
<clipPath id="clip0_10_365">
<rect width="349" height="220" fill="white"/>
</clipPath>
</defs>
</svg>
