<svg width="349" height="220" viewBox="0 0 349 220" fill="none" xmlns="http://www.w3.org/2000/svg">
<g clip-path="url(#clip0_10_190)">
<path d="M314.1 0H34.9C15.6253 0 0 14.3269 0 32V188C0 205.673 15.6253 220 34.9 220H314.1C333.375 220 349 205.673 349 188V32C349 14.3269 333.375 0 314.1 0Z" fill="#E3EDFF"/>
<path d="M174.5 196C228.71 196 272.656 188.837 272.656 180C272.656 171.163 228.71 164 174.5 164C120.29 164 76.3438 171.163 76.3438 180C76.3438 188.837 120.29 196 174.5 196Z" fill="#C5D9FA"/>
<path d="M244.3 150H104.7C101.086 150 98.1562 152.686 98.1562 156V168C98.1562 171.314 101.086 174 104.7 174H244.3C247.914 174 250.844 171.314 250.844 168V156C250.844 152.686 247.914 150 244.3 150Z" fill="#B3C7F7"/>
<path d="M174.5 168C191.365 168 205.038 154.569 205.038 138C205.038 121.431 191.365 108 174.5 108C157.635 108 143.963 121.431 143.963 138C143.963 154.569 157.635 168 174.5 168Z" fill="#2B4899"/>
<path d="M174.5 134C187.751 134 198.494 124.15 198.494 112C198.494 99.8497 187.751 90 174.5 90C161.249 90 150.506 99.8497 150.506 112C150.506 124.15 161.249 134 174.5 134Z" fill="#FFD180"/>
<path d="M174.5 122C179.319 122 183.225 120.209 183.225 118C183.225 115.791 179.319 114 174.5 114C169.681 114 165.775 115.791 165.775 118C165.775 120.209 169.681 122 174.5 122Z" fill="white"/>
<path d="M167.956 117.8C169.04 117.8 169.919 116.994 169.919 116C169.919 115.006 169.04 114.2 167.956 114.2C166.872 114.2 165.993 115.006 165.993 116C165.993 116.994 166.872 117.8 167.956 117.8Z" fill="#1A237E"/>
<path d="M181.044 117.8C182.128 117.8 183.007 116.994 183.007 116C183.007 115.006 182.128 114.2 181.044 114.2C179.96 114.2 179.081 115.006 179.081 116C179.081 116.994 179.96 117.8 181.044 117.8Z" fill="#1A237E"/>
<path d="M175.591 124H173.409C172.807 124 172.319 124.448 172.319 125C172.319 125.552 172.807 126 173.409 126H175.591C176.193 126 176.681 125.552 176.681 125C176.681 124.448 176.193 124 175.591 124Z" fill="#F9A825"/>
<path d="M224.115 132.551L201.568 125.026C199.87 124.459 197.993 125.262 197.375 126.819L195.883 130.578C195.265 132.135 196.14 133.856 197.838 134.423L220.385 141.947C222.083 142.514 223.96 141.711 224.579 140.154L226.071 136.396C226.689 134.839 225.813 133.117 224.115 132.551Z" fill="white"/>
<path d="M233.394 127H226.85C225.645 127 224.669 127.895 224.669 129V141C224.669 142.105 225.645 143 226.85 143H233.394C234.598 143 235.575 142.105 235.575 141V129C235.575 127.895 234.598 127 233.394 127Z" fill="#FFD180"/>
<path d="M165.775 164H133.056C131.852 164 130.875 164.895 130.875 166V172C130.875 173.105 131.852 174 133.056 174H165.775C166.98 174 167.956 173.105 167.956 172V166C167.956 164.895 166.98 164 165.775 164Z" fill="white"/>
<path d="M165.775 167C165.775 166.448 165.287 166 164.684 166C164.082 166 163.594 166.448 163.594 167V171C163.594 171.552 164.082 172 164.684 172C165.287 172 165.775 171.552 165.775 171V167Z" fill="#B3C7F7"/>
<path d="M100.338 60H58.8938C52.8704 60 47.9875 64.4772 47.9875 70V72C47.9875 77.5228 52.8704 82 58.8938 82H100.338C106.361 82 111.244 77.5228 111.244 72V70C111.244 64.4772 106.361 60 100.338 60Z" fill="#F8BBD0"/>
<path d="M70.8906 82L78.525 86L76.3437 77L70.8906 82Z" fill="#F8BBD0"/>
<path d="M60.5344 68V70.75H59.675V68H60.5344ZM62.5344 68V70.75H61.675V68H62.5344ZM64.299 76V68H69.1272V68.8594H65.2678V71.5625H68.8772V72.4219H65.2678V75.1406H69.1897V76H64.299ZM71.4357 70L72.8732 72.4531L74.3107 70H75.3732L73.4357 73L75.3732 76H74.3107L72.8732 73.6719L71.4357 76H70.3732L72.2795 73L70.3732 70H71.4357ZM78.4543 76.1406C78.0741 76.1406 77.729 76.069 77.4191 75.9258C77.1092 75.7799 76.8632 75.5703 76.6809 75.2969C76.4986 75.0208 76.4074 74.6875 76.4074 74.2969C76.4074 73.9531 76.4751 73.6745 76.6105 73.4609C76.746 73.2448 76.927 73.0755 77.1535 72.9531C77.3801 72.8307 77.6301 72.7396 77.9035 72.6797C78.1796 72.6172 78.4569 72.5677 78.7355 72.5313C79.1001 72.4844 79.3957 72.4492 79.6223 72.4258C79.8514 72.3997 80.0181 72.3568 80.1223 72.2969C80.229 72.237 80.2824 72.1328 80.2824 71.9844V71.9531C80.2824 71.5677 80.177 71.2682 79.966 71.0547C79.7577 70.8411 79.4413 70.7344 79.0168 70.7344C78.5767 70.7344 78.2316 70.8307 77.9816 71.0234C77.7316 71.2161 77.5559 71.4219 77.4543 71.6406L76.5793 71.3281C76.7355 70.9635 76.9439 70.6797 77.2043 70.4766C77.4673 70.2708 77.7538 70.1276 78.0637 70.0469C78.3762 69.9635 78.6835 69.9219 78.9856 69.9219C79.1783 69.9219 79.3996 69.9453 79.6496 69.9922C79.9022 70.0365 80.1457 70.1289 80.3801 70.2695C80.6171 70.4102 80.8137 70.6224 80.9699 70.9062C81.1262 71.1901 81.2043 71.5703 81.2043 72.0469V76H80.2824V75.1875H80.2356C80.1731 75.3177 80.0689 75.457 79.9231 75.6055C79.7772 75.7539 79.5832 75.8802 79.341 75.9844C79.0988 76.0885 78.8033 76.1406 78.4543 76.1406ZM78.5949 75.3125C78.9595 75.3125 79.2668 75.2409 79.5168 75.0977C79.7694 74.9544 79.9595 74.7695 80.0871 74.543C80.2173 74.3164 80.2824 74.0781 80.2824 73.8281V72.9844C80.2434 73.0312 80.1574 73.0742 80.0246 73.1133C79.8944 73.1497 79.7434 73.1823 79.5715 73.2109C79.4022 73.237 79.2369 73.2604 79.0754 73.2812C78.9165 73.2995 78.7876 73.3151 78.6887 73.3281C78.4491 73.3594 78.2251 73.4102 78.0168 73.4805C77.8111 73.5482 77.6444 73.651 77.5168 73.7891C77.3918 73.9245 77.3293 74.1094 77.3293 74.3437C77.3293 74.6641 77.4478 74.9062 77.6848 75.0703C77.9244 75.2318 78.2277 75.3125 78.5949 75.3125ZM82.8869 76V70H83.7775V70.9375H83.8557C83.9807 70.6172 84.1825 70.3685 84.4611 70.1914C84.7398 70.0117 85.0744 69.9219 85.465 69.9219C85.8609 69.9219 86.1903 70.0117 86.4533 70.1914C86.7189 70.3685 86.926 70.6172 87.0744 70.9375H87.1369C87.2906 70.6276 87.521 70.3815 87.8283 70.1992C88.1356 70.0143 88.5041 69.9219 88.9338 69.9219C89.4703 69.9219 89.9091 70.0898 90.2502 70.4258C90.5913 70.7591 90.7619 71.2786 90.7619 71.9844V76H89.84V71.9844C89.84 71.5417 89.7189 71.2253 89.4768 71.0352C89.2346 70.8451 88.9494 70.75 88.6213 70.75C88.1994 70.75 87.8726 70.8776 87.6408 71.1328C87.4091 71.3854 87.2932 71.7057 87.2932 72.0937V76H86.3557V71.8906C86.3557 71.5495 86.245 71.2747 86.0236 71.0664C85.8023 70.8555 85.5171 70.75 85.1682 70.75C84.9286 70.75 84.7046 70.8138 84.4963 70.9414C84.2906 71.069 84.1239 71.2461 83.9963 71.4727C83.8713 71.6966 83.8088 71.9557 83.8088 72.25V76H82.8869ZM98.1506 70V70.7812H95.0412V70H98.1506ZM95.9475 68.5625H96.8693V74.2812C96.8693 74.5417 96.9071 74.737 96.9826 74.8672C97.0607 74.9948 97.1597 75.0807 97.2795 75.125C97.4019 75.1667 97.5308 75.1875 97.6662 75.1875C97.7678 75.1875 97.8511 75.1823 97.9162 75.1719C97.9813 75.1589 98.0334 75.1484 98.0725 75.1406L98.26 75.9687C98.1975 75.9922 98.1102 76.0156 97.9982 76.0391C97.8863 76.0651 97.7443 76.0781 97.5725 76.0781C97.312 76.0781 97.0568 76.0221 96.8068 75.9102C96.5594 75.7982 96.3537 75.6276 96.1897 75.3984C96.0282 75.1693 95.9475 74.8802 95.9475 74.5312V68.5625ZM99.5373 76V70H100.459V76H99.5373ZM100.006 69C99.8264 69 99.6714 68.9388 99.5412 68.8164C99.4136 68.694 99.3498 68.5469 99.3498 68.375C99.3498 68.2031 99.4136 68.056 99.5412 67.9336C99.6714 67.8112 99.8264 67.75 100.006 67.75C100.186 67.75 100.339 67.8112 100.467 67.9336C100.597 68.056 100.662 68.2031 100.662 68.375C100.662 68.5469 100.597 68.694 100.467 68.8164C100.339 68.9388 100.186 69 100.006 69ZM102.148 76V70H103.038V70.9375H103.116C103.241 70.6172 103.443 70.3685 103.722 70.1914C104.001 70.0117 104.335 69.9219 104.726 69.9219C105.122 69.9219 105.451 70.0117 105.714 70.1914C105.98 70.3685 106.187 70.6172 106.335 70.9375H106.398C106.551 70.6276 106.782 70.3815 107.089 70.1992C107.396 70.0143 107.765 69.9219 108.195 69.9219C108.731 69.9219 109.17 70.0898 109.511 70.4258C109.852 70.7591 110.023 71.2786 110.023 71.9844V76H109.101V71.9844C109.101 71.5417 108.98 71.2253 108.738 71.0352C108.495 70.8451 108.21 70.75 107.882 70.75C107.46 70.75 107.133 70.8776 106.902 71.1328C106.67 71.3854 106.554 71.7057 106.554 72.0937V76H105.616V71.8906C105.616 71.5495 105.506 71.2747 105.284 71.0664C105.063 70.8555 104.778 70.75 104.429 70.75C104.189 70.75 103.965 70.8138 103.757 70.9414C103.551 71.069 103.385 71.2461 103.257 71.4727C103.132 71.6966 103.07 71.9557 103.07 72.25V76H102.148ZM114.224 76.125C113.646 76.125 113.147 75.9974 112.728 75.7422C112.311 75.4844 111.989 75.125 111.763 74.6641C111.539 74.2005 111.427 73.6615 111.427 73.0469C111.427 72.4323 111.539 71.8906 111.763 71.4219C111.989 70.9505 112.305 70.5833 112.708 70.3203C113.114 70.0547 113.588 69.9219 114.13 69.9219C114.443 69.9219 114.751 69.974 115.056 70.0781C115.361 70.1823 115.638 70.3516 115.888 70.5859C116.138 70.8177 116.337 71.125 116.486 71.5078C116.634 71.8906 116.708 72.362 116.708 72.9219V73.3125H112.083V72.5156H115.771C115.771 72.1771 115.703 71.875 115.568 71.6094C115.435 71.3437 115.245 71.1341 114.997 70.9805C114.752 70.8268 114.463 70.75 114.13 70.75C113.763 70.75 113.445 70.8411 113.177 71.0234C112.911 71.2031 112.707 71.4375 112.564 71.7266C112.42 72.0156 112.349 72.3255 112.349 72.6562V73.1875C112.349 73.6406 112.427 74.0247 112.583 74.3398C112.742 74.6523 112.962 74.8906 113.243 75.0547C113.525 75.2161 113.851 75.2969 114.224 75.2969C114.466 75.2969 114.685 75.263 114.88 75.1953C115.078 75.125 115.249 75.0208 115.392 74.8828C115.535 74.7422 115.646 74.5677 115.724 74.3594L116.614 74.6094C116.521 74.9115 116.363 75.1771 116.142 75.4062C115.92 75.6328 115.647 75.8099 115.321 75.9375C114.996 76.0625 114.63 76.125 114.224 76.125ZM119.329 68L119.251 73.75H118.345L118.267 68H119.329ZM118.798 76.0625C118.605 76.0625 118.44 75.9935 118.302 75.8555C118.164 75.7174 118.095 75.5521 118.095 75.3594C118.095 75.1667 118.164 75.0013 118.302 74.8633C118.44 74.7253 118.605 74.6562 118.798 74.6562C118.991 74.6562 119.156 74.7253 119.294 74.8633C119.432 75.0013 119.501 75.1667 119.501 75.3594C119.501 75.487 119.469 75.6042 119.404 75.7109C119.341 75.8177 119.256 75.9036 119.15 75.9687C119.045 76.0313 118.928 76.0625 118.798 76.0625ZM121.969 68V70.75H121.11V68H121.969ZM123.969 68V70.75H123.11V68H123.969Z" fill="#1A237E"/>
<path d="M285.744 38H248.662C242.639 38 237.756 42.4772 237.756 48C237.756 53.5228 242.639 58 248.662 58H285.744C291.767 58 296.65 53.5228 296.65 48C296.65 42.4772 291.767 38 285.744 38Z" fill="#B2DFDB"/>
<path d="M285.744 58L294.469 62L291.197 52L285.744 58Z" fill="#B2DFDB"/>
<path d="M250.303 44V46.75H249.444V44H250.303ZM252.303 44V46.75H251.444V44H252.303ZM254.068 52V44H256.771C257.396 44 257.909 44.1068 258.31 44.3203C258.711 44.5312 259.008 44.8216 259.201 45.1914C259.393 45.5612 259.49 45.9818 259.49 46.4531C259.49 46.9245 259.393 47.3424 259.201 47.707C259.008 48.0716 258.712 48.3581 258.314 48.5664C257.915 48.7721 257.406 48.875 256.786 48.875H254.599V48H256.755C257.182 48 257.526 47.9375 257.786 47.8125C258.05 47.6875 258.24 47.5104 258.357 47.2812C258.477 47.0495 258.536 46.7734 258.536 46.4531C258.536 46.1328 258.477 45.8529 258.357 45.6133C258.237 45.3737 258.046 45.1888 257.783 45.0586C257.52 44.9258 257.172 44.8594 256.74 44.8594H255.036V52H254.068ZM257.833 48.4062L259.802 52H258.677L256.74 48.4062H257.833ZM263.43 52.125C262.852 52.125 262.353 51.9974 261.934 51.7422C261.517 51.4844 261.196 51.125 260.969 50.6641C260.745 50.2005 260.633 49.6615 260.633 49.0469C260.633 48.4323 260.745 47.8906 260.969 47.4219C261.196 46.9505 261.511 46.5833 261.914 46.3203C262.321 46.0547 262.795 45.9219 263.336 45.9219C263.649 45.9219 263.957 45.974 264.262 46.0781C264.567 46.1823 264.844 46.3516 265.094 46.5859C265.344 46.8177 265.543 47.125 265.692 47.5078C265.84 47.8906 265.914 48.362 265.914 48.9219V49.3125H261.289V48.5156H264.977C264.977 48.1771 264.909 47.875 264.774 47.6094C264.641 47.3437 264.451 47.1341 264.203 46.9805C263.959 46.8268 263.67 46.75 263.336 46.75C262.969 46.75 262.651 46.8411 262.383 47.0234C262.118 47.2031 261.913 47.4375 261.77 47.7266C261.627 48.0156 261.555 48.3255 261.555 48.6562V49.1875C261.555 49.6406 261.633 50.0247 261.789 50.3398C261.948 50.6523 262.168 50.8906 262.45 51.0547C262.731 51.2161 263.058 51.2969 263.43 51.2969C263.672 51.2969 263.891 51.263 264.086 51.1953C264.284 51.125 264.455 51.0208 264.598 50.8828C264.741 50.7422 264.852 50.5677 264.93 50.3594L265.821 50.6094C265.727 50.9115 265.569 51.1771 265.348 51.4062C265.127 51.6328 264.853 51.8099 264.528 51.9375C264.202 52.0625 263.836 52.125 263.43 52.125ZM269.082 52.1406C268.702 52.1406 268.357 52.069 268.047 51.9258C267.737 51.7799 267.491 51.5703 267.309 51.2969C267.127 51.0208 267.036 50.6875 267.036 50.2969C267.036 49.9531 267.103 49.6745 267.239 49.4609C267.374 49.2448 267.555 49.0755 267.782 48.9531C268.008 48.8307 268.258 48.7396 268.532 48.6797C268.808 48.6172 269.085 48.5677 269.364 48.5313C269.728 48.4844 270.024 48.4492 270.25 48.4258C270.48 48.3997 270.646 48.3568 270.75 48.2969C270.857 48.237 270.911 48.1328 270.911 47.9844V47.9531C270.911 47.5677 270.805 47.2682 270.594 47.0547C270.386 46.8411 270.069 46.7344 269.645 46.7344C269.205 46.7344 268.86 46.8307 268.61 47.0234C268.36 47.2161 268.184 47.4219 268.082 47.6406L267.207 47.3281C267.364 46.9635 267.572 46.6797 267.832 46.4766C268.095 46.2708 268.382 46.1276 268.692 46.0469C269.004 45.9635 269.312 45.9219 269.614 45.9219C269.806 45.9219 270.028 45.9453 270.278 45.9922C270.53 46.0365 270.774 46.1289 271.008 46.2695C271.245 46.4102 271.442 46.6224 271.598 46.9062C271.754 47.1901 271.832 47.5703 271.832 48.0469V52H270.911V51.1875H270.864C270.801 51.3177 270.697 51.457 270.551 51.6055C270.405 51.7539 270.211 51.8802 269.969 51.9844C269.727 52.0885 269.431 52.1406 269.082 52.1406ZM269.223 51.3125C269.588 51.3125 269.895 51.2409 270.145 51.0977C270.398 50.9544 270.588 50.7695 270.715 50.543C270.845 50.3164 270.911 50.0781 270.911 49.8281V48.9844C270.871 49.0312 270.786 49.0742 270.653 49.1133C270.523 49.1497 270.371 49.1823 270.2 49.2109C270.03 49.237 269.865 49.2604 269.703 49.2812C269.545 49.2995 269.416 49.3151 269.317 49.3281C269.077 49.3594 268.853 49.4102 268.645 49.4805C268.439 49.5482 268.273 49.651 268.145 49.7891C268.02 49.9245 267.957 50.1094 267.957 50.3437C267.957 50.6641 268.076 50.9062 268.313 51.0703C268.552 51.2318 268.856 51.3125 269.223 51.3125ZM275.781 52.125C275.281 52.125 274.839 51.9987 274.456 51.7461C274.074 51.4909 273.774 51.1315 273.558 50.668C273.342 50.2018 273.234 49.651 273.234 49.0156C273.234 48.3854 273.342 47.8385 273.558 47.375C273.774 46.9115 274.075 46.5534 274.46 46.3008C274.846 46.0482 275.291 45.9219 275.796 45.9219C276.187 45.9219 276.495 45.987 276.722 46.1172C276.951 46.2448 277.126 46.3906 277.245 46.5547C277.368 46.7161 277.463 46.849 277.531 46.9531H277.609V44H278.531V52H277.64V51.0781H277.531C277.463 51.1875 277.367 51.3255 277.242 51.4922C277.117 51.6562 276.938 51.8034 276.706 51.9336C276.475 52.0612 276.166 52.125 275.781 52.125ZM275.906 51.2969C276.275 51.2969 276.588 51.2005 276.843 51.0078C277.098 50.8125 277.292 50.543 277.425 50.1992C277.558 49.8529 277.624 49.4531 277.624 49C277.624 48.5521 277.559 48.1602 277.429 47.8242C277.299 47.4857 277.106 47.2227 276.851 47.0352C276.596 46.8451 276.281 46.75 275.906 46.75C275.515 46.75 275.189 46.8503 274.929 47.0508C274.671 47.2487 274.477 47.5182 274.347 47.8594C274.219 48.1979 274.156 48.5781 274.156 49C274.156 49.4271 274.221 49.8151 274.351 50.1641C274.484 50.5104 274.679 50.7865 274.937 50.9922C275.197 51.1953 275.52 51.2969 275.906 51.2969ZM280.941 54.25C280.785 54.25 280.645 54.237 280.523 54.2109C280.4 54.1875 280.316 54.1641 280.269 54.1406L280.503 53.3281C280.727 53.3854 280.925 53.4063 281.097 53.3906C281.269 53.375 281.421 53.2982 281.554 53.1602C281.689 53.0247 281.813 52.8047 281.925 52.5L282.097 52.0313L279.878 46H280.878L282.535 50.7812H282.597L284.253 46H285.253L282.706 52.875C282.592 53.1849 282.45 53.4414 282.281 53.6445C282.111 53.8503 281.915 54.0026 281.691 54.1016C281.469 54.2005 281.219 54.25 280.941 54.25ZM287.469 50.9062L287.407 51.3281C287.362 51.625 287.295 51.9427 287.203 52.2813C287.115 52.6198 287.023 52.9388 286.926 53.2383C286.83 53.5378 286.75 53.776 286.688 53.9531H285.985C286.019 53.7865 286.063 53.5664 286.118 53.293C286.172 53.0195 286.227 52.7135 286.282 52.375C286.339 52.0391 286.386 51.6953 286.422 51.3437L286.469 50.9062H287.469ZM292.271 54.25V46H293.161V46.9531H293.271C293.339 46.849 293.432 46.7161 293.552 46.5547C293.675 46.3906 293.849 46.2448 294.076 46.1172C294.305 45.987 294.615 45.9219 295.005 45.9219C295.51 45.9219 295.956 46.0482 296.341 46.3008C296.727 46.5534 297.027 46.9115 297.244 47.375C297.46 47.8385 297.568 48.3854 297.568 49.0156C297.568 49.651 297.46 50.2018 297.244 50.668C297.027 51.1315 296.728 51.4909 296.345 51.7461C295.962 51.9987 295.521 52.125 295.021 52.125C294.635 52.125 294.327 52.0612 294.095 51.9336C293.863 51.8034 293.685 51.6562 293.56 51.4922C293.435 51.3255 293.339 51.1875 293.271 51.0781H293.193V54.25H292.271ZM293.177 49C293.177 49.4531 293.244 49.8529 293.376 50.1992C293.509 50.543 293.703 50.8125 293.958 51.0078C294.214 51.2005 294.526 51.2969 294.896 51.2969C295.281 51.2969 295.603 51.1953 295.861 50.9922C296.121 50.7865 296.316 50.5104 296.447 50.1641C296.579 49.8151 296.646 49.4271 296.646 49C296.646 48.5781 296.581 48.1979 296.451 47.8594C296.323 47.5182 296.129 47.2487 295.869 47.0508C295.611 46.8503 295.286 46.75 294.896 46.75C294.521 46.75 294.206 46.8451 293.951 47.0352C293.695 47.2227 293.503 47.4857 293.372 47.8242C293.242 48.1602 293.177 48.5521 293.177 49ZM298.974 52V46H299.865V46.9062H299.927C300.036 46.6094 300.234 46.3685 300.521 46.1836C300.807 45.9987 301.13 45.9062 301.49 45.9062C301.557 45.9062 301.642 45.9076 301.744 45.9102C301.845 45.9128 301.922 45.9167 301.974 45.9219V46.8594C301.943 46.8516 301.871 46.8398 301.759 46.8242C301.65 46.806 301.534 46.7969 301.411 46.7969C301.12 46.7969 300.859 46.8581 300.63 46.9805C300.404 47.1003 300.224 47.2669 300.091 47.4805C299.961 47.6914 299.896 47.9323 299.896 48.2031V52H298.974ZM305.322 52.125C304.78 52.125 304.305 51.9961 303.896 51.7383C303.49 51.4805 303.172 51.1198 302.943 50.6562C302.716 50.1927 302.603 49.651 302.603 49.0312C302.603 48.4062 302.716 47.8607 302.943 47.3945C303.172 46.9284 303.49 46.5664 303.896 46.3086C304.305 46.0508 304.78 45.9219 305.322 45.9219C305.863 45.9219 306.337 46.0508 306.744 46.3086C307.152 46.5664 307.47 46.9284 307.697 47.3945C307.926 47.8607 308.04 48.4062 308.04 49.0312C308.04 49.651 307.926 50.1927 307.697 50.6562C307.47 51.1198 307.152 51.4805 306.744 51.7383C306.337 51.9961 305.863 52.125 305.322 52.125ZM305.322 51.2969C305.733 51.2969 306.072 51.1914 306.337 50.9805C306.603 50.7695 306.8 50.4922 306.927 50.1484C307.055 49.8047 307.119 49.4323 307.119 49.0312C307.119 48.6302 307.055 48.2565 306.927 47.9102C306.8 47.5638 306.603 47.2839 306.337 47.0703C306.072 46.8568 305.733 46.75 305.322 46.75C304.91 46.75 304.572 46.8568 304.306 47.0703C304.04 47.2839 303.844 47.5638 303.716 47.9102C303.589 48.2565 303.525 48.6302 303.525 49.0312C303.525 49.4323 303.589 49.8047 303.716 50.1484C303.844 50.4922 304.04 50.7695 304.306 50.9805C304.572 51.1914 304.91 51.2969 305.322 51.2969ZM312.12 46V46.7812H308.885V46H312.12ZM309.854 52V45.1719C309.854 44.8281 309.935 44.5417 310.096 44.3125C310.258 44.0833 310.467 43.9115 310.725 43.7969C310.983 43.6823 311.255 43.625 311.541 43.625C311.768 43.625 311.953 43.6432 312.096 43.6797C312.239 43.7161 312.346 43.75 312.416 43.7812L312.151 44.5781C312.104 44.5625 312.039 44.543 311.955 44.5195C311.875 44.4961 311.768 44.4844 311.635 44.4844C311.33 44.4844 311.11 44.5612 310.975 44.7148C310.842 44.8685 310.776 45.0937 310.776 45.3906V52H309.854ZM314.63 44L314.552 49.75H313.646L313.568 44H314.63ZM314.099 52.0625C313.906 52.0625 313.741 51.9935 313.603 51.8555C313.465 51.7174 313.396 51.5521 313.396 51.3594C313.396 51.1667 313.465 51.0013 313.603 50.8633C313.741 50.7253 313.906 50.6562 314.099 50.6562C314.292 50.6562 314.457 50.7253 314.595 50.8633C314.733 51.0013 314.802 51.1667 314.802 51.3594C314.802 51.487 314.77 51.6042 314.704 51.7109C314.642 51.8177 314.557 51.9036 314.451 51.9687C314.346 52.0313 314.229 52.0625 314.099 52.0625ZM317.27 44V46.75H316.411V44H317.27ZM319.27 44V46.75H318.411V44H319.27Z" fill="#1A237E"/>
<path d="M285.744 142H263.931C261.522 142 259.569 143.791 259.569 146V154C259.569 156.209 261.522 158 263.931 158H285.744C288.153 158 290.106 156.209 290.106 154V146C290.106 143.791 288.153 142 285.744 142Z" fill="white"/>
<path d="M270.475 152C270.475 150.895 269.498 150 268.294 150C267.089 150 266.113 150.895 266.113 152V154C266.113 155.105 267.089 156 268.294 156C269.498 156 270.475 155.105 270.475 154V152Z" fill="#B2DFDB"/>
<path d="M278.109 149C278.109 147.895 277.133 147 275.928 147C274.723 147 273.747 147.895 273.747 149V154C273.747 155.105 274.723 156 275.928 156C277.133 156 278.109 155.105 278.109 154V149Z" fill="#2ECC71"/>
<path d="M285.744 146C285.744 144.895 284.767 144 283.562 144C282.358 144 281.381 144.895 281.381 146V154C281.381 155.105 282.358 156 283.562 156C284.767 156 285.744 155.105 285.744 154V146Z" fill="#FFD700"/>
<path d="M290.106 156L295.559 159L303.194 147" stroke="#2ECC71" stroke-width="2.2" stroke-linecap="round"/>
<path d="M63.2563 168H43.625C42.4203 168 41.4438 168.895 41.4438 170V174C41.4438 175.105 42.4203 176 43.625 176H63.2563C64.4609 176 65.4375 175.105 65.4375 174V170C65.4375 168.895 64.4609 168 63.2563 168Z" fill="#FFD180"/>
<path d="M80.7062 172H67.6187C66.4141 172 65.4375 172.895 65.4375 174V176C65.4375 177.105 66.4141 178 67.6187 178H80.7062C81.9109 178 82.8875 177.105 82.8875 176V174C82.8875 172.895 81.9109 172 80.7062 172Z" fill="#B2DFDB"/>
<path d="M93.7938 169H85.0688C83.8641 169 82.8875 169.895 82.8875 171V172C82.8875 173.105 83.8641 174 85.0688 174H93.7938C94.9984 174 95.975 173.105 95.975 172V171C95.975 169.895 94.9984 169 93.7938 169Z" fill="#E3EDFF"/>
</g>
<defs>
<clipPath id="clip0_10_190">
<rect width="349" height="220" fill="white"/>
</clipPath>
</defs>
</svg>
