<svg width="349" height="220" viewBox="0 0 349 220" fill="none" xmlns="http://www.w3.org/2000/svg">
<g clip-path="url(#clip0_10_300)">
<path d="M309.738 0H39.2625C17.5784 0 0 16.1177 0 36V184C0 203.882 17.5784 220 39.2625 220H309.738C331.422 220 349 203.882 349 184V36C349 16.1177 331.422 0 309.738 0Z" fill="#E3EDFF"/>
<path d="M174.5 215C234.734 215 283.563 208.284 283.563 200C283.563 191.716 234.734 185 174.5 185C114.266 185 65.4375 191.716 65.4375 200C65.4375 208.284 114.266 215 174.5 215Z" fill="#C5D9FA"/>
<path d="M229.031 70H119.969C112.741 70 106.881 75.3726 106.881 82V138C106.881 144.627 112.741 150 119.969 150H229.031C236.259 150 242.119 144.627 242.119 138V82C242.119 75.3726 236.259 70 229.031 70Z" fill="white" stroke="#FFD180" stroke-width="2"/>
<path d="M87.25 174C104.115 174 117.787 163.255 117.787 150C117.787 136.745 104.115 126 87.25 126C70.3846 126 56.7125 136.745 56.7125 150C56.7125 163.255 70.3846 174 87.25 174Z" fill="#2B4899"/>
<path d="M87.25 138C98.0921 138 106.881 129.941 106.881 120C106.881 110.059 98.0921 102 87.25 102C76.408 102 67.6188 110.059 67.6188 120C67.6188 129.941 76.408 138 87.25 138Z" fill="#FFD180"/>
<path d="M87.25 129C91.4663 129 94.8844 127.657 94.8844 126C94.8844 124.343 91.4663 123 87.25 123C83.0336 123 79.6156 124.343 79.6156 126C79.6156 127.657 83.0336 129 87.25 129Z" fill="white"/>
<path d="M81.7969 125.6C82.6402 125.6 83.3238 124.884 83.3238 124C83.3238 123.116 82.6402 122.4 81.7969 122.4C80.9536 122.4 80.27 123.116 80.27 124C80.27 124.884 80.9536 125.6 81.7969 125.6Z" fill="#2B4899"/>
<path d="M92.7031 125.6C93.5464 125.6 94.23 124.884 94.23 124C94.23 123.116 93.5464 122.4 92.7031 122.4C91.8599 122.4 91.1763 123.116 91.1763 124C91.1763 124.884 91.8599 125.6 92.7031 125.6Z" fill="#2B4899"/>
<path d="M88.3406 130H86.1594C85.557 130 85.0687 130.448 85.0687 131C85.0687 131.552 85.557 132 86.1594 132H88.3406C88.9429 132 89.4312 131.552 89.4312 131C89.4312 130.448 88.9429 130 88.3406 130Z" fill="#F9A825"/>
<path d="M126.674 133.53L105.605 138.706C102.696 139.421 100.906 141.946 101.608 144.347C102.309 146.747 105.236 148.114 108.145 147.399L129.215 142.223C132.124 141.508 133.913 138.983 133.212 136.582C132.51 134.181 129.583 132.815 126.674 133.53Z" fill="#FFECB3"/>
<path d="M194.131 149C201.962 149 208.309 143.18 208.309 136C208.309 128.82 201.962 123 194.131 123C186.301 123 179.953 128.82 179.953 136C179.953 143.18 186.301 149 194.131 149Z" fill="#FFD180"/>
<path d="M192.561 141.29V132.239H194.849V141.29H192.561ZM189.179 137.909V135.621H198.23V137.909H189.179Z" fill="white"/>
<path d="M202.856 90H135.238C132.828 90 130.875 91.7909 130.875 94C130.875 96.2091 132.828 98 135.238 98H202.856C205.266 98 207.219 96.2091 207.219 94C207.219 91.7909 205.266 90 202.856 90Z" fill="#FFE082"/>
<path d="M176.681 104H134.147C132.34 104 130.875 105.343 130.875 107C130.875 108.657 132.34 110 134.147 110H176.681C178.488 110 179.953 108.657 179.953 107C179.953 105.343 178.488 104 176.681 104Z" fill="#FFE082"/>
<path d="M193.041 116H134.147C132.34 116 130.875 117.343 130.875 119C130.875 120.657 132.34 122 134.147 122H193.041C194.848 122 196.312 120.657 196.312 119C196.312 117.343 194.848 116 193.041 116Z" fill="#FFE082"/>
<path d="M277.019 160H255.206C252.797 160 250.844 161.791 250.844 164V174C250.844 176.209 252.797 178 255.206 178H277.019C279.428 178 281.381 176.209 281.381 174V164C281.381 161.791 279.428 160 277.019 160Z" fill="white"/>
<path d="M251.934 160L266.113 171L280.291 160H251.934Z" fill="#FFD180"/>
<path d="M272.656 166H259.569C258.966 166 258.478 166.448 258.478 167C258.478 167.552 258.966 168 259.569 168H272.656C273.259 168 273.747 167.552 273.747 167C273.747 166.448 273.259 166 272.656 166Z" fill="#FFD180"/>
<path d="M327.188 198C333.211 198 338.094 196.657 338.094 195C338.094 193.343 333.211 192 327.188 192C321.164 192 316.281 193.343 316.281 195C316.281 196.657 321.164 198 327.188 198Z" fill="#B2DFDB"/>
<path d="M330.459 185C330.459 183.343 328.995 182 327.188 182C325.381 182 323.916 183.343 323.916 185V192C323.916 193.657 325.381 195 327.188 195C328.995 195 330.459 193.657 330.459 192V185Z" fill="#2ECC71"/>
<path d="M327.188 185C328.693 185 329.914 183.209 329.914 181C329.914 178.791 328.693 177 327.188 177C325.682 177 324.461 178.791 324.461 181C324.461 183.209 325.682 185 327.188 185Z" fill="#2ECC71"/>
</g>
<defs>
<clipPath id="clip0_10_300">
<rect width="349" height="220" fill="white"/>
</clipPath>
</defs>
</svg>
