<svg width="30" height="30" viewBox="0 0 30 30" fill="none" xmlns="http://www.w3.org/2000/svg">
<path fill-rule="evenodd" clip-rule="evenodd" d="M6.65341 11.0935V14.7408C6.65341 19.3275 10.3869 23.061 14.9737 23.061C19.5604 23.061 23.2939 19.3275 23.2939 14.7408V11.0935H24.8067V14.7408C24.8067 19.9081 20.7999 24.1575 15.7301 24.545L15.73 28.4872H19.512V30H10.4353V28.4872H14.2173L14.2172 24.545C9.14747 24.1575 5.14062 19.9081 5.14062 14.7408V11.0935H6.65341ZM14.9737 0C18.7269 0 21.7812 3.0543 21.7812 6.8075V14.3714C21.7812 18.1246 18.7269 21.1789 14.9737 21.1789C11.2205 21.1789 8.16617 18.1246 8.16617 14.3714V6.8075C8.16617 3.0543 11.2205 0 14.9737 0Z" fill="white"/>
</svg>
