<svg width="26" height="25" viewBox="0 0 26 25" fill="none" xmlns="http://www.w3.org/2000/svg">
<path d="M13.1497 2.08325C12.3209 2.08325 11.526 2.41249 10.94 2.99854C10.3539 3.58459 10.0247 4.37945 10.0247 5.20825V12.4999C10.0247 13.3287 10.3539 14.1236 10.94 14.7096C11.526 15.2957 12.3209 15.6249 13.1497 15.6249C13.9785 15.6249 14.7733 15.2957 15.3594 14.7096C15.9454 14.1236 16.2747 13.3287 16.2747 12.4999V5.20825C16.2747 4.37945 15.9454 3.58459 15.3594 2.99854C14.7733 2.41249 13.9785 2.08325 13.1497 2.08325Z" stroke="white" stroke-width="1.875" stroke-linecap="round" stroke-linejoin="round"/>
<path d="M20.4413 10.4167V12.5001C20.4413 14.434 19.6731 16.2886 18.3057 17.6561C16.9382 19.0235 15.0836 19.7917 13.1497 19.7917C11.2158 19.7917 9.36115 19.0235 7.99369 17.6561C6.62624 16.2886 5.85801 14.434 5.85801 12.5001V10.4167" stroke="white" stroke-width="1.875" stroke-linecap="round" stroke-linejoin="round"/>
<path d="M13.1497 19.7917V22.9167" stroke="white" stroke-width="1.875" stroke-linecap="round" stroke-linejoin="round"/>
</svg>
