<svg width="349" height="220" viewBox="0 0 349 220" fill="none" xmlns="http://www.w3.org/2000/svg">
<g clip-path="url(#clip0_14_859)">
<path d="M309.738 0H39.2625C17.5784 0 0 16.1177 0 36V184C0 203.882 17.5784 220 39.2625 220H309.738C331.422 220 349 203.882 349 184V36C349 16.1177 331.422 0 309.738 0Z" fill="#E3EDFF"/>
<path d="M239.938 50H109.062C97.0158 50 87.25 58.9543 87.25 70V150C87.25 161.046 97.0158 170 109.062 170H239.938C251.984 170 261.75 161.046 261.75 150V70C261.75 58.9543 251.984 50 239.938 50Z" fill="white" stroke="#2B4799" stroke-width="2"/>
<path d="M109.062 168C122.314 168 133.056 159.941 133.056 150C133.056 140.059 122.314 132 109.062 132C95.8111 132 85.0687 140.059 85.0687 150C85.0687 159.941 95.8111 168 109.062 168Z" fill="#2B4799"/>
<path d="M109.062 142C116.291 142 122.15 136.627 122.15 130C122.15 123.373 116.291 118 109.062 118C101.834 118 95.975 123.373 95.975 130C95.975 136.627 101.834 142 109.062 142Z" fill="#FFD180"/>
<path d="M137.391 139.186L123.043 143.974C121.345 144.541 120.47 146.262 121.088 147.819C121.706 149.376 123.583 150.179 125.281 149.612L139.629 144.824C141.327 144.257 142.203 142.536 141.585 140.979C140.967 139.422 139.089 138.619 137.391 139.186Z" fill="#FFD180"/>
<path d="M139.6 147C142.009 147 143.963 144.761 143.963 142C143.963 139.239 142.009 137 139.6 137C137.191 137 135.238 139.239 135.238 142C135.238 144.761 137.191 147 139.6 147Z" fill="#FFD180"/>
<path d="M170.138 75H152.688C146.664 75 141.781 79.4772 141.781 85V105C141.781 110.523 146.664 115 152.688 115H170.138C176.161 115 181.044 110.523 181.044 105V85C181.044 79.4772 176.161 75 170.138 75Z" fill="#B3C7F7"/>
<path d="M171.647 77.8685C172.894 73.6008 170.132 69.2141 165.478 68.0706C160.823 66.927 156.039 69.4597 154.792 73.7274L153.663 77.5911C152.416 81.8588 155.178 86.2455 159.832 87.3891C164.487 88.5326 169.271 85.9999 170.518 81.7322L171.647 77.8685Z" fill="#FFD180"/>
<path d="M161.412 101C163.22 101 164.684 99.2091 164.684 97C164.684 94.7909 163.22 93 161.412 93C159.605 93 158.141 94.7909 158.141 97C158.141 99.2091 159.605 101 161.412 101Z" fill="#FFD180"/>
<path d="M233.394 130H115.606C111.992 130 109.062 132.686 109.062 136V150C109.062 153.314 111.992 156 115.606 156H233.394C237.008 156 239.938 153.314 239.938 150V136C239.938 132.686 237.008 130 233.394 130Z" fill="#B3C7F7"/>
<path d="M130.875 146C132.682 146 134.147 144.657 134.147 143C134.147 141.343 132.682 140 130.875 140C129.068 140 127.603 141.343 127.603 143C127.603 144.657 129.068 146 130.875 146Z" fill="#FFD180"/>
<path d="M141.781 146C143.588 146 145.053 144.657 145.053 143C145.053 141.343 143.588 140 141.781 140C139.974 140 138.509 141.343 138.509 143C138.509 144.657 139.974 146 141.781 146Z" fill="#FFD180"/>
<path d="M152.688 146C154.495 146 155.959 144.657 155.959 143C155.959 141.343 154.495 140 152.688 140C150.881 140 149.416 141.343 149.416 143C149.416 144.657 150.881 146 152.688 146Z" fill="#FFD180"/>
<path d="M163.594 146C165.401 146 166.866 144.657 166.866 143C166.866 141.343 165.401 140 163.594 140C161.787 140 160.322 141.343 160.322 143C160.322 144.657 161.787 146 163.594 146Z" fill="#FFD180"/>
<path d="M174.5 146C176.307 146 177.772 144.657 177.772 143C177.772 141.343 176.307 140 174.5 140C172.693 140 171.228 141.343 171.228 143C171.228 144.657 172.693 146 174.5 146Z" fill="#FFD180"/>
<path d="M185.406 146C187.213 146 188.678 144.657 188.678 143C188.678 141.343 187.213 140 185.406 140C183.599 140 182.134 141.343 182.134 143C182.134 144.657 183.599 146 185.406 146Z" fill="#FFD180"/>
<path opacity="0.3" d="M229.031 90C235.055 90 239.938 85.5228 239.938 80C239.938 74.4772 235.055 70 229.031 70C223.008 70 218.125 74.4772 218.125 80C218.125 85.5228 223.008 90 229.031 90Z" fill="#B3C7F7"/>
<path d="M223.578 80L229.031 85L235.575 75" stroke="#2B4799" stroke-width="2" stroke-linecap="round"/>
</g>
<defs>
<clipPath id="clip0_14_859">
<rect width="349" height="220" fill="white"/>
</clipPath>
</defs>
</svg>
