<svg width="30" height="30" viewBox="0 0 30 30" fill="none" xmlns="http://www.w3.org/2000/svg">
<path d="M5.55002 22.5901C5.55002 23.1101 5.73002 23.5501 6.09002 23.9101C6.45002 24.2701 6.90002 24.4601 7.44002 24.4801H11.22C11.74 24.4801 12.19 24.2901 12.57 23.9101C12.95 23.5301 13.13 23.0901 13.11 22.5901V7.44008C13.11 6.92008 12.93 6.47008 12.57 6.09008C12.21 5.71008 11.76 5.53008 11.22 5.55008H7.44002C6.92002 5.55008 6.47002 5.73008 6.09002 6.09008C5.71002 6.45008 5.53002 6.90008 5.55002 7.44008V22.5901ZM16.89 22.5901C16.89 23.1101 17.08 23.5501 17.46 23.9101C17.84 24.2701 18.28 24.4601 18.78 24.4801H22.56C23.08 24.4801 23.53 24.2901 23.91 23.9101C24.29 23.5301 24.47 23.0901 24.45 22.5901V7.44008C24.45 6.92008 24.27 6.47008 23.91 6.09008C23.55 5.71008 23.1 5.53008 22.56 5.55008H18.78C18.26 5.55008 17.82 5.73008 17.46 6.09008C17.1 6.45008 16.91 6.90008 16.89 7.44008V22.5901Z" fill="#2B4799"/>
</svg>
