<svg width="34" height="33" viewBox="0 0 34 33" fill="none" xmlns="http://www.w3.org/2000/svg">
<path d="M17 23.375H17.0133" stroke="#222227" stroke-width="1.5" stroke-linecap="round" stroke-linejoin="round"/>
<path d="M21.25 2.75H8.5C7.74855 2.75 7.02789 3.03973 6.49653 3.55546C5.96518 4.07118 5.66667 4.77065 5.66667 5.5V27.5C5.66667 28.2293 5.96518 28.9288 6.49653 29.4445C7.02789 29.9603 7.74855 30.25 8.5 30.25H25.5C26.2514 30.25 26.9721 29.9603 27.5035 29.4445C28.0348 28.9288 28.3333 28.2293 28.3333 27.5V9.625L21.25 2.75Z" stroke="#222227" stroke-width="1.5" stroke-linecap="round" stroke-linejoin="round"/>
<path d="M12.8917 12.375C13.2316 11.4656 13.8901 10.7011 14.7519 10.2152C15.6138 9.72923 16.6242 9.55275 17.6065 9.71656C18.5888 9.88038 19.4806 10.3741 20.1259 11.1114C20.7711 11.8487 21.1289 12.7826 21.1367 13.75C21.1367 16.5 16.8867 17.875 16.8867 17.875" stroke="#222227" stroke-width="1.5" stroke-linecap="round" stroke-linejoin="round"/>
</svg>
