<svg width="349" height="220" viewBox="0 0 349 220" fill="none" xmlns="http://www.w3.org/2000/svg">
<g clip-path="url(#clip0_14_750)">
<path d="M309.738 0H39.2625C17.5784 0 0 16.1177 0 36V184C0 203.882 17.5784 220 39.2625 220H309.738C331.422 220 349 203.882 349 184V36C349 16.1177 331.422 0 309.738 0Z" fill="#E3EDFF"/>
<path d="M261.75 60H87.25C75.2033 60 65.4375 68.9543 65.4375 80V140C65.4375 151.046 75.2033 160 87.25 160H261.75C273.797 160 283.563 151.046 283.563 140V80C283.563 68.9543 273.797 60 261.75 60Z" fill="white" stroke="#2B4799" stroke-width="2"/>
<path d="M123.241 110H110.153C106.539 110 103.609 112.686 103.609 116V136C103.609 139.314 106.539 142 110.153 142H123.241C126.855 142 129.784 139.314 129.784 136V116C129.784 112.686 126.855 110 123.241 110Z" fill="#E3EDFF"/>
<path d="M155.959 110H142.872C139.258 110 136.328 112.686 136.328 116V136C136.328 139.314 139.258 142 142.872 142H155.959C159.573 142 162.503 139.314 162.503 136V116C162.503 112.686 159.573 110 155.959 110Z" fill="#E3EDFF"/>
<path d="M188.678 110H175.591C171.977 110 169.047 112.686 169.047 116V136C169.047 139.314 171.977 142 175.591 142H188.678C192.292 142 195.222 139.314 195.222 136V116C195.222 112.686 192.292 110 188.678 110Z" fill="#E3EDFF"/>
<path d="M221.397 110H208.309C204.695 110 201.766 112.686 201.766 116V136C201.766 139.314 204.695 142 208.309 142H221.397C225.011 142 227.941 139.314 227.941 136V116C227.941 112.686 225.011 110 221.397 110Z" fill="#E3EDFF"/>
<path d="M254.116 110H241.028C237.414 110 234.484 112.686 234.484 116V136C234.484 139.314 237.414 142 241.028 142H254.116C257.73 142 260.659 139.314 260.659 136V116C260.659 112.686 257.73 110 254.116 110Z" fill="#E3EDFF"/>
<path d="M116.697 130C119.106 130 121.059 128.209 121.059 126C121.059 123.791 119.106 122 116.697 122C114.288 122 112.334 123.791 112.334 126C112.334 128.209 114.288 130 116.697 130Z" fill="#FFD180"/>
<path d="M149.416 130C151.825 130 153.778 128.209 153.778 126C153.778 123.791 151.825 122 149.416 122C147.006 122 145.053 123.791 145.053 126C145.053 128.209 147.006 130 149.416 130Z" fill="#FFD180"/>
<path d="M182.134 130C184.544 130 186.497 128.209 186.497 126C186.497 123.791 184.544 122 182.134 122C179.725 122 177.772 123.791 177.772 126C177.772 128.209 179.725 130 182.134 130Z" fill="#FFD180"/>
<path d="M214.853 130C217.262 130 219.216 128.209 219.216 126C219.216 123.791 217.262 122 214.853 122C212.444 122 210.491 123.791 210.491 126C210.491 128.209 212.444 130 214.853 130Z" fill="#FFD180"/>
<path d="M247.572 130C249.981 130 251.934 128.209 251.934 126C251.934 123.791 249.981 122 247.572 122C245.163 122 243.209 123.791 243.209 126C243.209 128.209 245.163 130 247.572 130Z" fill="#FFD180"/>
<path d="M272.656 174C283.498 174 292.288 167.732 292.288 160C292.288 152.268 283.498 146 272.656 146C261.814 146 253.025 152.268 253.025 160C253.025 167.732 261.814 174 272.656 174Z" fill="#B2DFDB"/>
<path d="M272.656 158C278.68 158 283.562 153.523 283.562 148C283.562 142.477 278.68 138 272.656 138C266.633 138 261.75 142.477 261.75 148C261.75 153.523 266.633 158 272.656 158Z" fill="#FFD180"/>
<path d="M294.231 157.494L284.347 153.268C282.709 152.568 280.762 153.217 279.998 154.719C279.235 156.221 279.943 158.005 281.581 158.706L291.465 162.932C293.103 163.632 295.05 162.982 295.814 161.481C296.577 159.979 295.869 158.194 294.231 157.494Z" fill="#FFD180"/>
<path d="M299.922 155H296.65C295.445 155 294.469 155.895 294.469 157V166C294.469 167.105 295.445 168 296.65 168H299.922C301.127 168 302.103 167.105 302.103 166V157C302.103 155.895 301.127 155 299.922 155Z" fill="#1A237E"/>
<path opacity="0.13" d="M87.25 94C95.6826 94 102.519 87.732 102.519 80C102.519 72.268 95.6826 66 87.25 66C78.8173 66 71.9812 72.268 71.9812 80C71.9812 87.732 78.8173 94 87.25 94Z" fill="#FFD180"/>
<path d="M80.7063 80L87.25 86L97.0657 72" stroke="#2B4799" stroke-width="3" stroke-linecap="round"/>
<path d="M327.188 198C333.211 198 338.094 196.657 338.094 195C338.094 193.343 333.211 192 327.188 192C321.164 192 316.281 193.343 316.281 195C316.281 196.657 321.164 198 327.188 198Z" fill="#B2DFDB"/>
<path d="M330.459 185C330.459 183.343 328.995 182 327.188 182C325.381 182 323.916 183.343 323.916 185V192C323.916 193.657 325.381 195 327.188 195C328.995 195 330.459 193.657 330.459 192V185Z" fill="#1A237E"/>
<path d="M327.188 185C328.693 185 329.914 183.209 329.914 181C329.914 178.791 328.693 177 327.188 177C325.682 177 324.461 178.791 324.461 181C324.461 183.209 325.682 185 327.188 185Z" fill="#2ECC71"/>
</g>
<defs>
<clipPath id="clip0_14_750">
<rect width="349" height="220" fill="white"/>
</clipPath>
</defs>
</svg>
